<svg width="100" height="32" viewBox="0 0 100 32" fill="none" xmlns="http://www.w3.org/2000/svg">
<g id="head 1" clip-path="url(#clip0_79631_49)">
<path id="Vector" fill-rule="evenodd" clip-rule="evenodd" d="M38.8462 0H-5V30H38.8462L50.3846 15L38.8462 0ZM14.6567 12.9712C14.5886 12.9167 14.5215 12.8622 14.4547 12.8081C14.286 12.6713 14.1199 12.5367 13.949 12.4076C13.4829 12.0518 12.9766 11.7685 12.3959 11.6422C11.7549 11.502 11.1076 11.4512 10.4681 11.6453C9.556 11.9209 8.9212 12.5215 8.5015 13.3578C8.1531 14.0539 8.0602 14.7916 8.1516 15.5585C8.2243 16.1591 8.4179 16.7166 8.7725 17.211C9.3176 17.9702 10.0608 18.4091 10.9899 18.5246C11.8261 18.6293 12.6359 18.5246 13.4024 18.1581C13.6641 18.0326 13.6641 18.0303 13.6641 17.7413V17.7361C13.6641 17.6657 13.6643 17.5955 13.6645 17.5254C13.6648 17.3854 13.6651 17.2451 13.6641 17.1047C13.6639 17.0765 13.6643 17.0524 13.6646 17.0319C13.6656 16.9734 13.666 16.9434 13.6512 16.9282C13.6355 16.9121 13.6028 16.9125 13.5356 16.9133C13.5187 16.9135 13.4997 16.9137 13.4783 16.9137H11.0472C11.0255 16.9137 11.0062 16.914 10.9892 16.9142C10.921 16.915 10.8878 16.9154 10.872 16.8991C10.857 16.8837 10.8577 16.8533 10.8589 16.7939C10.8593 16.7741 10.8598 16.7511 10.8598 16.7243C10.8588 16.0775 10.8591 15.4307 10.8595 14.7839C10.8597 14.4605 10.8598 14.137 10.8598 13.8136C10.8598 13.8019 10.8602 13.79 10.8605 13.7781C10.8612 13.754 10.8619 13.7295 10.8598 13.7058C10.8552 13.6489 10.8753 13.6181 10.9373 13.6242C10.9611 13.6263 10.9856 13.6256 11.0098 13.6249C11.0219 13.6246 11.0338 13.6242 11.0457 13.6242H17.1915C17.2318 13.6242 17.2658 13.6319 17.2597 13.6827C17.2569 13.7133 17.2762 13.7339 17.2959 13.7549C17.3199 13.7804 17.3445 13.8065 17.3309 13.8521C17.3191 13.8914 17.3221 13.9343 17.3251 13.9774C17.3264 13.9968 17.3278 14.0163 17.3278 14.0354L17.3277 15.1409C17.3274 16.6147 17.3272 18.0892 17.3309 19.5626C17.3309 19.6827 17.2937 19.7582 17.2024 19.8337C16.058 20.7808 14.7713 21.443 13.3157 21.771C12.4548 21.9651 11.583 22.019 10.7019 21.9481C9.6613 21.865 8.6719 21.5985 7.7583 21.0934C6.0813 20.1663 5.0252 18.7587 4.539 16.9214C4.32531 16.1098 4.26027 15.2828 4.3284 14.4481C4.5839 11.3527 6.761 8.9379 9.6784 8.26641C10.5114 8.07391 11.3523 8.04619 12.2008 8.10317C12.8512 8.14783 13.4907 8.24947 14.1163 8.43428C15.0531 8.71302 15.88 9.1935 16.6325 9.8095C16.7208 9.8819 16.8075 9.9543 16.8927 10.0282C17.0011 10.1206 17.0042 10.173 16.9097 10.2869C16.4359 10.8568 15.962 11.425 15.4867 11.9933C15.2497 12.2782 15.0128 12.5631 14.7744 12.8465C14.7682 12.8544 14.7622 12.8625 14.756 12.8708C14.7298 12.9062 14.7019 12.9438 14.6567 12.9712ZM26.7515 8.07692C28.5152 8.09078 30.2216 8.71142 31.654 10.0143C32.7658 11.0276 33.4471 12.2905 33.7196 13.7643C34.0231 15.4044 33.8048 16.9753 32.9903 18.4398C32.024 20.177 30.5499 21.2905 28.6267 21.7941C26.9714 22.2283 25.33 22.1406 23.7459 21.483C21.6834 20.6252 20.3502 19.0851 19.7246 16.9691C19.1656 15.0764 19.3684 13.2361 20.3687 11.5204C21.3427 9.848 22.8091 8.80074 24.6828 8.31254C25.3285 8.14468 25.937 8.07846 26.7515 8.07692ZM26.3334 11.599C25.3656 11.6206 24.3684 12.1719 23.7444 13.3223C23.3201 14.1031 23.221 14.9455 23.3821 15.8156C23.509 16.5025 23.8079 17.1108 24.3034 17.6098C25.0761 18.389 26.0222 18.6955 27.1061 18.5708C28.2272 18.4429 29.0603 17.87 29.5945 16.8859C30.0482 16.0482 30.1427 15.1519 29.9305 14.2294C29.5806 12.6986 28.2969 11.5944 26.3334 11.599Z" fill="#FF6B0A"/>
<path id="Vector_2" fill-rule="evenodd" clip-rule="evenodd" d="M99.2309 1.10376H55.3848V31.1038H99.2309V1.10376ZM69.7687 9.3637V15.9074V22.4202C69.7687 22.4341 69.769 22.448 69.7694 22.4618C69.77 22.4894 69.7707 22.5168 69.7687 22.5434C69.7625 22.6189 69.7826 22.6635 69.8693 22.6512C69.89 22.6492 69.9106 22.6498 69.9313 22.6505C69.9416 22.6509 69.9519 22.6512 69.9622 22.6512C70.3278 22.6512 70.6936 22.6514 71.0595 22.6516H71.0629C71.7946 22.6519 72.5268 22.6522 73.2589 22.6512C73.282 22.6512 73.3024 22.6515 73.3205 22.6517C73.391 22.6526 73.4253 22.653 73.4416 22.6361C73.457 22.6201 73.4563 22.5885 73.455 22.5271C73.4545 22.5064 73.454 22.4822 73.454 22.4541V9.38218C73.454 9.37192 73.4537 9.36165 73.4533 9.35138C73.4526 9.33085 73.452 9.31031 73.454 9.28978C73.4618 9.21278 73.4354 9.17274 73.3518 9.18198C73.3354 9.18402 73.3182 9.18335 73.3008 9.18267L73.2949 9.18244C73.2881 9.18219 73.2813 9.18198 73.2744 9.18198C72.905 9.18198 72.5354 9.18181 72.1658 9.18164C71.4261 9.18129 70.6859 9.18095 69.9467 9.18198C69.9248 9.18198 69.9056 9.18169 69.8887 9.18144C69.8278 9.18053 69.7971 9.18007 69.7819 9.19514C69.7667 9.21033 69.7672 9.24131 69.7681 9.30351C69.7684 9.32099 69.7687 9.34094 69.7687 9.3637ZM88.1242 9.18243H82.6272C80.7953 9.18243 78.9635 9.18243 77.1332 9.18089C77.1257 9.18089 77.1182 9.18094 77.1107 9.18101C77.1043 9.18107 77.098 9.18115 77.0916 9.18123C77.0643 9.18157 77.0371 9.18191 77.0093 9.18089C76.9474 9.17781 76.9257 9.20707 76.9303 9.26405C76.9314 9.28145 76.931 9.29816 76.9307 9.3151C76.9305 9.32366 76.9303 9.33227 76.9303 9.34105V12.4674L76.9302 12.4998C76.9299 12.5668 76.9298 12.5999 76.9462 12.616C76.9622 12.6317 76.9939 12.6314 77.0563 12.6309L77.0991 12.6306H80.5522C80.665 12.6306 80.7207 12.6306 80.7483 12.6585C80.7752 12.6857 80.7752 12.7396 80.7752 12.8462V22.4853C80.7752 22.5038 80.775 22.5202 80.7747 22.5348C80.774 22.59 80.7735 22.6191 80.7878 22.6342C80.8034 22.6507 80.8368 22.6506 80.9067 22.6502L80.9409 22.6501H80.9873H84.2546C84.3586 22.6501 84.41 22.6501 84.4355 22.6244C84.4606 22.5991 84.4606 22.5491 84.4606 22.4499V12.8108C84.4606 12.79 84.4603 12.7716 84.46 12.7553C84.4591 12.6958 84.4586 12.6646 84.4739 12.6486C84.4904 12.6312 84.5255 12.6314 84.5988 12.6319L84.6448 12.6322H88.1599C88.3116 12.6322 88.3116 12.6322 88.3132 12.4828V12.4366V9.37185C88.3132 9.35056 88.3134 9.33163 88.3136 9.31481C88.3144 9.24711 88.3148 9.21331 88.2982 9.19684C88.2818 9.18057 88.2488 9.18102 88.1833 9.18192C88.166 9.18216 88.1464 9.18243 88.1242 9.18243Z" fill="#1B1D1F"/>
</g>
<defs>
<clipPath id="clip0_79631_49">
<rect width="100" height="32" fill="white"/>
</clipPath>
</defs>
</svg>
